<!-- Generated by IcoMoon.io -->
<svg version="1.1" xmlns="http://www.w3.org/2000/svg" width="32" height="32" viewBox="0 0 32 32">
<title>jimu-artboard-reduce</title>
<path d="M6 7.333v17.333c0 0.741 0.594 1.333 1.333 1.333h17.333c0.741 0 1.333-0.594 1.333-1.333v-17.333c0-0.741-0.594-1.333-1.333-1.333h-17.333c-0.741 0-1.333 0.594-1.333 1.333zM4.667 7.333c0-1.473 1.187-2.667 2.667-2.667h17.333c1.473 0 2.667 1.187 2.667 2.667v17.333c0 1.473-1.187 2.667-2.667 2.667h-17.333c-1.473 0-2.667-1.187-2.667-2.667v-17.333zM11.333 15.333v1.333h9.333v-1.333h-9.333z"></path>
</svg>
