<!-- Generated by IcoMoon.io -->
<svg version="1.1" xmlns="http://www.w3.org/2000/svg" width="32" height="32" viewBox="0 0 32 32">
<title>jimu-search-2</title>
<path d="M23.331 21.915l6.154 6.154-1.414 1.414-6.155-6.155c-2.109 1.786-4.837 2.863-7.817 2.863-6.682 0-12.099-5.416-12.099-12.096s5.417-12.096 12.099-12.096c6.682 0 12.099 5.416 12.099 12.096 0 2.981-1.079 5.71-2.867 7.819zM14.099 24.176c5.568 0 10.083-4.513 10.083-10.080s-4.514-10.080-10.083-10.080c-5.568 0-10.083 4.513-10.083 10.080s4.514 10.080 10.083 10.080z"></path>
</svg>
