<!-- Generated by IcoMoon.io -->
<svg version="1.1" xmlns="http://www.w3.org/2000/svg" width="32" height="32" viewBox="0 0 32 32">
<title>jimu-contact-phone</title>
<path d="M20.229 18.213c0.51-0.268 1.052-0.413 1.567-0.413 0.438 0 0.85 0.105 1.203 0.318 0.453 0.277 4.453 2.933 4.914 3.256 1.070 0.751 1.267 2.354 0.391 3.604-0.263 0.375-0.896 1.173-1.541 1.863-1.186 1.269-2.198 2.016-3.201 2.016-3.792-0.122-8.176-3.058-12.771-7.658-4.591-4.593-7.527-8.983-7.648-12.766-0.022-0.673 0.325-1.348 0.942-2.098 0.303-0.368 0.669-0.748 1.086-1.137 0.399-0.372 0.824-0.732 1.249-1.070 0.258-0.204 0.457-0.355 0.603-0.461 0.498-0.345 1.085-0.526 1.669-0.526 0.774 0 1.492 0.317 1.915 0.905 0.259 0.357 2.898 4.353 3.249 4.91 0.497 0.779 0.435 1.824-0.077 2.796-0.143 0.273-0.51 0.929-0.931 1.67 0.591 0.77 1.476 1.775 2.709 3.010 1.24 1.242 2.242 2.127 3.005 2.713 0.709-0.403 1.394-0.789 1.667-0.934zM22.109 19.583c-0.070-0.042-0.175-0.069-0.313-0.069-0.225 0-0.496 0.073-0.766 0.214-0.31 0.165-1.262 0.702-2.102 1.183l-0.473 0.271-0.446-0.313c-0.884-0.621-2.106-1.663-3.665-3.224-1.547-1.549-2.589-2.774-3.218-3.668l-0.314-0.446 0.27-0.473c0.515-0.901 1.018-1.794 1.178-2.1 0.251-0.476 0.275-0.883 0.148-1.082-0.335-0.532-2.957-4.502-3.19-4.824-0.079-0.11-0.272-0.195-0.526-0.195-0.237 0-0.484 0.076-0.675 0.208-0.11 0.080-0.294 0.219-0.531 0.407-0.392 0.311-0.783 0.643-1.146 0.981-0.366 0.341-0.682 0.669-0.931 0.972-0.373 0.453-0.557 0.811-0.552 0.954 0.102 3.201 2.852 7.312 7.147 11.609 4.299 4.303 8.405 7.053 11.586 7.155 0.666 0 2.418-1.875 3.311-3.149 0.354-0.505 0.289-1.033 0.028-1.216-0.433-0.304-4.405-2.94-4.82-3.195z"></path>
</svg>
