<!-- Generated by IcoMoon.io -->
<svg version="1.1" xmlns="http://www.w3.org/2000/svg" width="32" height="32" viewBox="0 0 32 32">
<title>jimu-toast-warning</title>
<path d="M16 32c-8.837 0-16-7.163-16-16s7.163-16 16-16c8.837 0 16 7.163 16 16s-7.163 16-16 16v0zM14.437 7l0.469 11h2.094l0.563-11h-3.125zM17.417 21.584c-0.395-0.387-0.871-0.581-1.429-0.581s-1.031 0.194-1.416 0.581c-0.385 0.389-0.579 0.859-0.579 1.412 0 0.633 0.202 1.126 0.605 1.478s0.875 0.529 1.416 0.529c0.531 0 0.997-0.179 1.396-0.535s0.598-0.847 0.598-1.471c0-0.553-0.197-1.023-0.591-1.412v0z"></path>
</svg>
