<!-- Generated by IcoMoon.io -->
<svg version="1.1" xmlns="http://www.w3.org/2000/svg" width="32" height="32" viewBox="0 0 32 32">
<title>jimu-successful</title>
<path d="M13.707 18.749l8.485-8.485 1.414 1.414-9.899 9.899-5.657-5.657 1.414-1.414 4.243 4.243zM6.101 25.899c-5.467-5.467-5.467-14.332 0-19.799s14.332-5.467 19.799 0c5.467 5.467 5.467 14.332 0 19.799s-14.332 5.467-19.799 0zM7.515 24.485c4.686 4.686 12.284 4.686 16.971 0s4.686-12.284 0-16.971c-4.686-4.686-12.284-4.686-16.971 0s-4.686 12.284 0 16.971z"></path>
</svg>
