<?xml version="1.0" encoding="utf-8"?>
<!-- Generator: Adobe Illustrator 16.0.0, SVG Export Plug-In . SVG Version: 6.00 Build 0)  -->
<!DOCTYPE svg PUBLIC "-//W3C//DTD SVG 1.1//EN" "http://www.w3.org/Graphics/SVG/1.1/DTD/svg11.dtd">
<svg version="1.1" id="图层_1" xmlns="http://www.w3.org/2000/svg" xmlns:xlink="http://www.w3.org/1999/xlink" x="0px" y="0px"
	 width="30px" height="30px" viewBox="0 0 30 30" enable-background="new 0 0 30 30" xml:space="preserve">
<g>
	<g>
		<path fill="#BFBFBF" d="M29.519,26.895l-6.91-6.85c1.543-2.062,2.469-4.606,2.469-7.365c0-6.835-5.609-12.397-12.503-12.397
			c-6.895,0-12.504,5.562-12.504,12.397c0,6.836,5.609,12.396,12.504,12.396c3.095,0,5.926-1.127,8.112-2.98l6.837,6.777
			c0.275,0.273,0.637,0.41,0.998,0.41s0.723-0.137,0.998-0.41C30.069,28.326,30.069,27.441,29.519,26.895z M12.574,22.279
			c-5.339,0-9.683-4.307-9.683-9.6s4.344-9.599,9.683-9.599c5.339,0,9.682,4.306,9.682,9.599S17.913,22.279,12.574,22.279z"/>
	</g>
</g>
</svg>
