<?xml version="1.0" encoding="UTF-8"?>
<svg width="24px" height="24px" viewBox="0 0 24 24" version="1.1" xmlns="http://www.w3.org/2000/svg" xmlns:xlink="http://www.w3.org/1999/xlink">
    <!-- Generator: Sketch 43.1 (39012) - http://www.bohemiancoding.com/sketch -->
    <title>c_ic_toast_warning</title>
    <desc>Created with Sketch.</desc>
    <defs></defs>
    <g id="Page-1" stroke="none" stroke-width="1" fill="none" fill-rule="evenodd">
        <g id="A组件" transform="translate(-1561.000000, -640.000000)" fill="#000000">
            <g id="Toast/提交失败" transform="translate(1545.000000, 624.000000)">
                <g id="Group">
                    <g id="Group-22">
                        <g id="Group-2" transform="translate(16.000000, 16.000000)">
                            <path d="M12,24 C5.3725,24 0,18.6275 0,12 C0,5.3725 5.3725,0 12,0 C18.6275,0 24,5.3725 24,12 C24,18.6275 18.6275,24 12,24 L12,24 Z M10.828,5.25 L11.1795,13.5 L12.75,13.5 L13.172,5.25 L10.828,5.25 L10.828,5.25 Z M13.0625,16.188 C12.7665,15.8975 12.409,15.752 11.9905,15.752 C11.5715,15.752 11.2175,15.8975 10.9285,16.188 C10.6395,16.4795 10.4945,16.832 10.4945,17.247 C10.4945,17.722 10.646,18.0915 10.9485,18.3555 C11.251,18.62 11.605,18.752 12.0105,18.752 C12.409,18.752 12.758,18.618 13.0575,18.3505 C13.3565,18.0835 13.506,17.7155 13.506,17.247 C13.506,16.832 13.358,16.4795 13.0625,16.188 L13.0625,16.188 Z" id="c_ic_toast_warning"></path>
                        </g>
                    </g>
                </g>
            </g>
        </g>
    </g>
</svg>