<?xml version="1.0" encoding="UTF-8"?>
<svg width="20px" height="20px" viewBox="0 0 20 20" version="1.1" xmlns="http://www.w3.org/2000/svg" xmlns:xlink="http://www.w3.org/1999/xlink">
    <!-- Generator: Sketch 46.1 (44463) - http://www.bohemiancoding.com/sketch -->
    <title>trip_icon_phone</title>
    <desc>Created with Sketch.</desc>
    <defs></defs>
    <g id="Page-1" stroke="none" stroke-width="1" fill="none" fill-rule="evenodd">
        <path d="M19.5176663,15.0633588 C19.2131339,14.8498251 15.871896,12.6265126 15.4631495,12.3766405 C15.283318,12.2679366 15.0673167,12.2142633 14.8299809,12.2142633 C14.5253355,12.2142633 14.1864701,12.3028327 13.8566471,12.476267 C13.5357818,12.6466188 12.5612046,13.2005735 12.0851484,13.4730969 C11.6653531,13.1779504 10.6797555,12.421915 9.1255862,10.8659271 C7.58235261,9.32096793 6.82049882,8.32558021 6.52303082,7.90283948 C6.79534954,7.4265103 7.34888812,6.45244485 7.51645583,6.13131007 C7.83458016,5.52749978 7.87154113,4.92227554 7.6121644,4.51588 C7.3703074,4.13190959 5.15770723,0.774784303 4.92867919,0.458965955 C4.71397776,0.161161243 4.3291937,0 3.91075481,0 C3.58093183,0 3.23101768,0.100305129 2.92637224,0.311378566 C2.89721037,0.332700829 -0.0383611008,2.46147712 0.000380101047,3.67181248 C0.109087179,7.07500403 3.41203602,11.0736919 6.16472415,13.8276856 C8.91664933,16.5824428 12.9123338,19.8905325 16.3253178,20 L16.3543667,20 C17.5476861,20 19.649036,17.1003136 19.6690142,17.0718085 C20.2220159,16.2827717 20.0202282,15.4160528 19.5176663,15.0633588" id="trip_icon_phone" fill="#000000"></path>
    </g>
</svg>