<?xml version="1.0" encoding="utf-8"?>
<!-- Generator: Adobe Illustrator 16.0.0, SVG Export Plug-In . SVG Version: 6.00 Build 0)  -->
<!DOCTYPE svg PUBLIC "-//W3C//DTD SVG 1.1//EN" "http://www.w3.org/Graphics/SVG/1.1/DTD/svg11.dtd">
<svg version="1.1" id="图层_1" xmlns="http://www.w3.org/2000/svg" xmlns:xlink="http://www.w3.org/1999/xlink" x="0px" y="0px"
	 width="18px" height="18px" viewBox="0 0 18 18" enable-background="new 0 0 18 18" xml:space="preserve">
<g>
	<path fill-rule="evenodd" clip-rule="evenodd" fill="#D8D8D8" d="M17.793,1.74l-7.488,7.632l6.793,6.924
		c0.203,0.206,0.203,0.542,0,0.749l-0.734,0.748c-0.203,0.207-0.531,0.207-0.734,0l-6.792-6.924l-6.789,6.92
		C1.841,18,1.505,18,1.298,17.789l-0.75-0.764c-0.207-0.212-0.207-0.554,0-0.766l6.789-6.919L0.204,2.07
		c-0.203-0.207-0.203-0.542,0-0.749l0.734-0.749c0.203-0.207,0.531-0.207,0.734,0l7.133,7.27l7.487-7.632
		C16.5,0,16.836,0,17.043,0.211l0.75,0.765C18,1.187,18,1.528,17.793,1.74z"/>
</g>
</svg>
