<!-- Generated by IcoMoon.io -->
<svg version="1.1" xmlns="http://www.w3.org/2000/svg" width="32" height="32" viewBox="0 0 32 32">
<title>jimu-trip-phone</title>
<path d="M31.228 24.101c-0.487-0.342-5.833-3.899-6.487-4.299-0.288-0.174-0.633-0.26-1.013-0.26-0.487 0-1.030 0.142-1.557 0.419-0.513 0.273-2.073 1.159-2.834 1.595-0.672-0.472-2.249-1.682-4.735-4.171-2.469-2.472-3.688-4.065-4.164-4.741 0.436-0.762 1.321-2.321 1.589-2.834 0.509-0.966 0.568-1.934 0.153-2.585-0.387-0.614-3.927-5.986-4.294-6.491-0.344-0.476-0.959-0.734-1.629-0.734-0.528 0-1.088 0.161-1.575 0.498-0.047 0.034-4.744 3.44-4.682 5.377 0.174 5.445 5.459 11.843 9.863 16.249 4.403 4.408 10.796 9.701 16.257 9.876h0.046c1.909 0 5.271-4.639 5.303-4.685 0.885-1.262 0.562-2.649-0.242-3.214z"></path>
</svg>
