<!-- Generated by IcoMoon.io -->
<svg version="1.1" xmlns="http://www.w3.org/2000/svg" width="32" height="32" viewBox="0 0 32 32">
<title>jimu-question</title>
<path d="M17.050 17.921v2.1h-2v-4h1c1.657 0 3-1.343 3-3s-1.343-3-3-3c-1.657 0-3 1.343-3 3h-2c0-2.761 2.239-5 5-5s5 2.239 5 5c0 2.419-1.718 4.437-4 4.9zM16 30c-7.732 0-14-6.268-14-14s6.268-14 14-14c7.732 0 14 6.268 14 14s-6.268 14-14 14zM16 28c6.627 0 12-5.373 12-12s-5.373-12-12-12c-6.627 0-12 5.373-12 12s5.373 12 12 12zM15.050 22.021h2v2h-2v-2z"></path>
</svg>
