<!-- Generated by IcoMoon.io -->
<svg version="1.1" xmlns="http://www.w3.org/2000/svg" width="32" height="32" viewBox="0 0 32 32">
<title>jimu-del</title>
<path fill="#d8d8d8" d="M31.632 3.093l-13.312 13.568 12.076 12.309c0.361 0.366 0.361 0.964 0 1.332l-1.305 1.33c-0.361 0.368-0.944 0.368-1.305 0l-12.075-12.309-12.069 12.302c-0.37 0.375-0.967 0.375-1.335 0l-1.333-1.358c-0.368-0.377-0.368-0.985 0-1.362l12.069-12.3-12.681-12.924c-0.361-0.368-0.361-0.964 0-1.332l1.305-1.332c0.361-0.368 0.944-0.368 1.305 0l12.681 12.924 13.31-13.568c0.37-0.373 0.967-0.373 1.335 0.002l1.333 1.36c0.368 0.375 0.368 0.981 0 1.358z"></path>
</svg>
