<!-- Generated by IcoMoon.io -->
<svg version="1.1" xmlns="http://www.w3.org/2000/svg" width="32" height="32" viewBox="0 0 32 32">
<title>jimu-location</title>
<path d="M16.225 26.802c1.259-1.413 2.518-2.916 3.689-4.441 1.018-1.325 1.921-2.605 2.678-3.811 1.563-2.492 2.409-4.543 2.409-5.831 0-4.803-4.018-8.719-9-8.719s-9 3.916-9 8.719c0 1.287 0.846 3.339 2.409 5.831 0.757 1.207 1.66 2.486 2.678 3.811 1.171 1.525 2.43 3.028 3.688 4.441 0.076 0.085 0.151 0.169 0.225 0.252 0.074-0.083 0.149-0.167 0.225-0.252zM16 30c0 0-11-11.362-11-17.281s4.925-10.719 11-10.719c6.075 0 11 4.8 11 10.719s-11 17.281-11 17.281zM16 17c2.209 0 4-1.791 4-4s-1.791-4-4-4c-2.209 0-4 1.791-4 4s1.791 4 4 4zM16 15c-1.105 0-2-0.895-2-2s0.895-2 2-2c1.105 0 2 0.895 2 2s-0.895 2-2 2z"></path>
</svg>
