<!-- Generated by IcoMoon.io -->
<svg version="1.1" xmlns="http://www.w3.org/2000/svg" width="32" height="32" viewBox="0 0 32 32">
<title>jimu-money</title>
<path d="M19.121 13.021h1.929v2h-10v-2h2.586l-2.586-2.586 1.414-1.414 3.914 3.914 3.914-3.914 1.414 1.414-2.586 2.586zM15.050 17.021v-2h2v2h4v2h-4v4h-2v-4h-4v-2h4zM16 30c-7.732 0-14-6.268-14-14s6.268-14 14-14c7.732 0 14 6.268 14 14s-6.268 14-14 14zM16 28c6.627 0 12-5.373 12-12s-5.373-12-12-12c-6.627 0-12 5.373-12 12s5.373 12 12 12z"></path>
</svg>
