<!-- Generated by IcoMoon.io -->
<svg version="1.1" xmlns="http://www.w3.org/2000/svg" width="32" height="32" viewBox="0 0 32 32">
<title>jimu-search</title>
<path fill="#bfbfbf" d="M31.487 28.688l-7.371-7.307c1.646-2.199 2.634-4.913 2.634-7.856 0-7.291-5.983-13.223-13.337-13.223-7.355 0-13.338 5.933-13.338 13.223 0 7.292 5.983 13.222 13.338 13.222 3.301 0 6.321-1.202 8.653-3.179l7.293 7.229c0.293 0.291 0.679 0.437 1.065 0.437s0.771-0.146 1.065-0.437c0.586-0.583 0.586-1.527-0.001-2.11zM13.412 23.764c-5.695 0-10.329-4.594-10.329-10.24s4.634-10.239 10.329-10.239c5.695 0 10.327 4.593 10.327 10.239s-4.633 10.24-10.327 10.24z"></path>
</svg>
